<svg width="164" height="64" viewBox="0 0 164 64" fill="none" xmlns="http://www.w3.org/2000/svg">
<path fill-rule="evenodd" clip-rule="evenodd" d="M5.67187 17.0851C6.54438 17.0851 7.35965 16.8408 8.05256 16.4172L27.9534 26.5276C29.4306 27.278 31.2399 26.6907 31.9946 25.2157L32.9946 23.2613L32.9916 23.2598L35.8285 17.7167C36.5533 16.3005 35.9911 14.5682 34.5728 13.8474C33.1545 13.1267 31.4171 13.6906 30.6923 15.1068L27.8551 20.6503L10.1431 11.652C9.72773 9.56962 7.88376 8 5.67187 8C3.15409 8 1.11304 10.0338 1.11304 12.5425C1.11304 15.0513 3.15409 17.0851 5.67187 17.0851ZM5.67141 15.1382C7.11014 15.1382 8.27646 13.9761 8.27646 12.5425C8.27646 11.1089 7.11014 9.94678 5.67141 9.94678C4.23269 9.94678 3.06637 11.1089 3.06637 12.5425C3.06637 13.9761 4.23269 15.1382 5.67141 15.1382Z" fill="#D6A02B"/>
<path d="M27.5884 12.6536C29.028 13.3225 29.6496 15.0303 28.9768 16.4681C28.3039 17.9059 26.5914 18.5292 25.1518 17.8603L18.2059 14.6329C16.7663 13.964 16.1447 12.2562 16.8175 10.8184C17.4904 9.38063 19.2029 8.75733 20.6425 9.42624L27.5884 12.6536Z" fill="#33364D"/>
<path fill-rule="evenodd" clip-rule="evenodd" d="M9.11766 50.1596C9.11766 49.2902 8.87254 48.4779 8.44741 47.7874L18.591 27.9637C19.3457 26.4887 18.76 24.6846 17.2829 23.9342L15.3159 22.9349L15.3146 22.9375L9.74081 20.1053C8.32546 19.3861 6.59174 19.9487 5.86845 21.362C5.14515 22.7752 5.70617 24.5039 7.12152 25.2231L12.6957 28.0556L3.66509 45.7043C1.57525 46.1183 0 47.9556 0 50.1596C0 52.6684 2.04106 54.7021 4.55883 54.7021C7.0766 54.7021 9.11766 52.6684 9.11766 50.1596ZM6.97448 50.1811C6.97448 48.7475 5.80816 47.5854 4.36944 47.5854C2.93071 47.5854 1.76439 48.7475 1.76439 50.1811C1.76439 51.6147 2.93071 52.7769 4.36944 52.7769C5.80816 52.7769 6.97448 51.6147 6.97448 50.1811Z" fill="#33364D"/>
<path d="M4.60993 28.3879C5.28434 26.9468 7.00079 26.3221 8.44373 26.9925C9.88667 27.663 10.5097 29.3747 9.83529 30.8158L6.60759 37.7129C5.93318 39.154 4.21673 39.7787 2.77379 39.1083C1.33085 38.4378 0.707828 36.7261 1.38223 35.285L4.60993 28.3879Z" fill="#D6A02B"/>
<path fill-rule="evenodd" clip-rule="evenodd" d="M42.3281 46.9149C41.4555 46.9149 40.6402 47.1592 39.9472 47.5829L20.0466 37.4727C18.5694 36.7223 16.7601 37.3096 16.0054 38.7846L15.0054 40.7389L15.0083 40.7404L12.1715 46.2833C11.4467 47.6995 12.0089 49.4318 13.4272 50.1526C14.8455 50.8733 16.5829 50.3094 17.3077 48.8932L20.1448 43.3499L37.8569 52.3483C38.2724 54.4305 40.1163 56 42.3281 56C44.8459 56 46.887 53.9662 46.887 51.4575C46.887 48.9487 44.8459 46.9149 42.3281 46.9149ZM42.1427 48.8828C40.704 48.8828 39.5377 50.0449 39.5377 51.4785C39.5377 52.9121 40.704 54.0742 42.1427 54.0742C43.5815 54.0742 44.7478 52.9121 44.7478 51.4785C44.7478 50.0449 43.5815 48.8828 42.1427 48.8828Z" fill="#D6A02B"/>
<path d="M20.4116 51.3464C18.972 50.6775 18.3504 48.9697 19.0232 47.5319C19.6961 46.0941 21.4086 45.4708 22.8482 46.1397L29.7941 49.3671C31.2337 50.036 31.8553 51.7438 31.1825 53.1816C30.5096 54.6194 28.7971 55.2427 27.3575 54.5738L20.4116 51.3464Z" fill="#33364D"/>
<path fill-rule="evenodd" clip-rule="evenodd" d="M38.8823 13.8404C38.8823 14.7098 39.1275 15.5222 39.5526 16.2127L29.409 36.0366C28.6542 37.5116 29.2399 39.3157 30.717 40.0661L32.684 41.0654L32.6855 41.0625L38.2592 43.8947C39.6745 44.6139 41.4083 44.0513 42.1316 42.638C42.8549 41.2248 42.2938 39.4961 40.8785 38.7769L35.3044 35.9444L44.335 18.2956C46.4248 17.8817 48 16.0443 48 13.8404C48 11.3316 45.9589 9.29785 43.4412 9.29785C40.9234 9.29785 38.8823 11.3316 38.8823 13.8404ZM40.8401 13.8404C40.8401 15.2739 42.0064 16.4361 43.4451 16.4361C44.8838 16.4361 46.0502 15.2739 46.0502 13.8404C46.0502 12.4068 44.8838 11.2446 43.4451 11.2446C42.0064 11.2446 40.8401 12.4068 40.8401 13.8404Z" fill="#33364D"/>
<path d="M43.3901 35.6121C42.7157 37.0532 40.9992 37.6779 39.5563 37.0075C38.1133 36.337 37.4903 34.6253 38.1647 33.1842L41.3924 26.2871C42.0668 24.846 43.7833 24.2213 45.2262 24.8917C46.6692 25.5622 47.2922 27.2739 46.6178 28.715L43.3901 35.6121Z" fill="#D6A02B"/>
<path d="M71.056 28.252C70.156 28.252 69.328 28.096 68.572 27.784C67.816 27.46 67.162 27.004 66.61 26.416C66.058 25.828 65.632 25.138 65.332 24.346C65.032 23.542 64.882 22.654 64.882 21.682C64.882 20.77 65.038 19.936 65.35 19.18C65.662 18.424 66.1 17.77 66.664 17.218C67.228 16.654 67.894 16.216 68.662 15.904C69.442 15.592 70.294 15.436 71.218 15.436C71.602 15.436 71.998 15.472 72.406 15.544C72.814 15.604 73.21 15.706 73.594 15.85C73.978 15.982 74.314 16.15 74.602 16.354C74.83 16.498 75.022 16.648 75.178 16.804C75.346 16.948 75.436 17.116 75.448 17.308C75.46 17.416 75.442 17.536 75.394 17.668C75.346 17.788 75.274 17.914 75.178 18.046C75.046 18.25 74.902 18.4 74.746 18.496C74.602 18.592 74.458 18.64 74.314 18.64C74.23 18.64 74.128 18.61 74.008 18.55C73.888 18.478 73.726 18.382 73.522 18.262C73.366 18.154 73.162 18.052 72.91 17.956C72.658 17.86 72.382 17.782 72.082 17.722C71.782 17.662 71.47 17.632 71.146 17.632C70.342 17.632 69.634 17.8 69.022 18.136C68.41 18.472 67.93 18.952 67.582 19.576C67.246 20.188 67.078 20.908 67.078 21.736C67.078 22.588 67.252 23.338 67.6 23.986C67.948 24.634 68.422 25.144 69.022 25.516C69.634 25.876 70.336 26.056 71.128 26.056C71.404 26.056 71.68 26.038 71.956 26.002C72.244 25.966 72.52 25.912 72.784 25.84C73.06 25.768 73.312 25.678 73.54 25.57V22.726H70.984C70.816 22.726 70.66 22.708 70.516 22.672C70.384 22.636 70.276 22.552 70.192 22.42C70.12 22.288 70.084 22.072 70.084 21.772C70.084 21.46 70.126 21.238 70.21 21.106C70.294 20.974 70.402 20.89 70.534 20.854C70.678 20.818 70.834 20.8 71.002 20.8H74.674C74.986 20.8 75.214 20.854 75.358 20.962C75.502 21.07 75.598 21.208 75.646 21.376C75.694 21.532 75.718 21.712 75.718 21.916V26.11C75.718 26.35 75.598 26.596 75.358 26.848C75.13 27.1 74.806 27.334 74.386 27.55C74.11 27.694 73.792 27.82 73.432 27.928C73.084 28.024 72.706 28.102 72.298 28.162C71.902 28.222 71.488 28.252 71.056 28.252ZM82.2145 28.288C81.4345 28.288 80.7505 28.162 80.1625 27.91C79.5865 27.658 79.1005 27.316 78.7045 26.884C78.3205 26.44 78.0265 25.948 77.8225 25.408C77.6305 24.856 77.5345 24.286 77.5345 23.698C77.5345 22.834 77.7325 22.066 78.1285 21.394C78.5245 20.722 79.0705 20.194 79.7665 19.81C80.4745 19.426 81.2845 19.234 82.1965 19.234C82.8445 19.234 83.4145 19.336 83.9065 19.54C84.3985 19.744 84.8065 20.014 85.1305 20.35C85.4665 20.674 85.7185 21.034 85.8865 21.43C86.0665 21.826 86.1565 22.21 86.1565 22.582C86.1565 23.218 86.0005 23.68 85.6885 23.968C85.3885 24.256 85.0105 24.4 84.5545 24.4H79.8025C79.8145 24.808 79.9405 25.162 80.1805 25.462C80.4325 25.762 80.7445 25.996 81.1165 26.164C81.5005 26.32 81.8905 26.398 82.2865 26.398C82.5865 26.398 82.8505 26.38 83.0785 26.344C83.3185 26.308 83.5225 26.266 83.6905 26.218C83.8585 26.158 84.0025 26.098 84.1225 26.038C84.2545 25.978 84.3745 25.924 84.4825 25.876C84.5905 25.828 84.6925 25.798 84.7885 25.786C84.9205 25.774 85.0525 25.804 85.1845 25.876C85.3165 25.948 85.4245 26.074 85.5085 26.254C85.5805 26.374 85.6285 26.488 85.6525 26.596C85.6885 26.692 85.7065 26.788 85.7065 26.884C85.7065 27.124 85.5625 27.352 85.2745 27.568C84.9865 27.772 84.5785 27.94 84.0505 28.072C83.5345 28.216 82.9225 28.288 82.2145 28.288ZM79.8025 23.122H83.4925C83.6965 23.122 83.8525 23.092 83.9605 23.032C84.0685 22.96 84.1225 22.816 84.1225 22.6C84.1225 22.324 84.0385 22.078 83.8705 21.862C83.7025 21.634 83.4745 21.46 83.1865 21.34C82.8985 21.208 82.5625 21.142 82.1785 21.142C81.7345 21.142 81.3325 21.232 80.9725 21.412C80.6125 21.58 80.3245 21.814 80.1085 22.114C79.9045 22.414 79.8025 22.75 79.8025 23.122ZM88.8756 28.162C88.5516 28.162 88.3116 28.108 88.1556 28C88.0116 27.904 87.9216 27.778 87.8856 27.622C87.8496 27.454 87.8316 27.268 87.8316 27.064V20.332C87.8316 20.14 87.8496 19.966 87.8856 19.81C87.9216 19.654 88.0176 19.534 88.1736 19.45C88.3296 19.354 88.5696 19.306 88.8936 19.306C89.1816 19.306 89.3976 19.342 89.5416 19.414C89.6856 19.486 89.7816 19.576 89.8296 19.684C89.8776 19.792 89.9016 19.9 89.9016 20.008C89.9136 20.116 89.9256 20.2 89.9376 20.26L89.8656 20.836C89.9376 20.644 90.0576 20.458 90.2256 20.278C90.3936 20.098 90.5976 19.936 90.8376 19.792C91.0776 19.636 91.3356 19.516 91.6116 19.432C91.8996 19.336 92.1936 19.288 92.4936 19.288C93.0576 19.288 93.5616 19.39 94.0056 19.594C94.4496 19.798 94.8276 20.086 95.1396 20.458C95.4636 20.83 95.7096 21.274 95.8776 21.79C96.0456 22.294 96.1296 22.864 96.1296 23.5V27.082C96.1296 27.286 96.1056 27.472 96.0576 27.64C96.0216 27.796 95.9316 27.922 95.7876 28.018C95.6436 28.114 95.3976 28.162 95.0496 28.162C94.7136 28.162 94.4676 28.108 94.3116 28C94.1556 27.904 94.0596 27.778 94.0236 27.622C93.9876 27.454 93.9696 27.268 93.9696 27.064V23.482C93.9696 23.05 93.8916 22.678 93.7356 22.366C93.5916 22.054 93.3756 21.814 93.0876 21.646C92.8116 21.478 92.4576 21.394 92.0256 21.394C91.6056 21.394 91.2396 21.484 90.9276 21.664C90.6156 21.832 90.3756 22.072 90.2076 22.384C90.0396 22.696 89.9556 23.062 89.9556 23.482V27.082C89.9556 27.286 89.9376 27.472 89.9016 27.64C89.8656 27.796 89.7696 27.922 89.6136 28.018C89.4696 28.114 89.2236 28.162 88.8756 28.162ZM99.0378 28.18C98.7018 28.18 98.4558 28.126 98.2998 28.018C98.1558 27.922 98.0658 27.79 98.0298 27.622C97.9938 27.454 97.9758 27.274 97.9758 27.082V16.336C97.9758 16.132 97.9938 15.952 98.0298 15.796C98.0778 15.628 98.1738 15.496 98.3178 15.4C98.4738 15.304 98.7198 15.256 99.0558 15.256C99.3918 15.256 99.6318 15.31 99.7758 15.418C99.9318 15.514 100.028 15.646 100.064 15.814C100.112 15.97 100.136 16.15 100.136 16.354V20.422C100.376 20.146 100.682 19.894 101.054 19.666C101.438 19.426 101.9 19.306 102.44 19.306C103.172 19.306 103.826 19.486 104.402 19.846C104.978 20.194 105.434 20.68 105.77 21.304C106.106 21.928 106.274 22.66 106.274 23.5V27.1C106.274 27.292 106.256 27.472 106.22 27.64C106.184 27.796 106.088 27.922 105.932 28.018C105.788 28.114 105.548 28.162 105.212 28.162C104.876 28.162 104.63 28.114 104.474 28.018C104.318 27.922 104.222 27.796 104.186 27.64C104.15 27.472 104.132 27.28 104.132 27.064V23.482C104.132 23.062 104.06 22.696 103.916 22.384C103.772 22.072 103.556 21.832 103.268 21.664C102.992 21.484 102.644 21.394 102.224 21.394C101.66 21.394 101.186 21.562 100.802 21.898C100.418 22.222 100.196 22.642 100.136 23.158V27.1C100.136 27.292 100.112 27.472 100.064 27.64C100.028 27.808 99.9318 27.94 99.7758 28.036C99.6318 28.132 99.3858 28.18 99.0378 28.18ZM112.107 28.288C111.531 28.288 110.967 28.18 110.415 27.964C109.875 27.736 109.383 27.418 108.939 27.01C108.507 26.602 108.159 26.122 107.895 25.57C107.643 25.018 107.517 24.412 107.517 23.752C107.517 23.116 107.637 22.522 107.877 21.97C108.117 21.418 108.447 20.932 108.867 20.512C109.287 20.092 109.767 19.768 110.307 19.54C110.859 19.3 111.447 19.18 112.071 19.18C112.911 19.18 113.673 19.384 114.357 19.792C115.041 20.188 115.587 20.728 115.995 21.412C116.403 22.096 116.607 22.87 116.607 23.734C116.607 24.418 116.481 25.042 116.229 25.606C115.977 26.158 115.635 26.638 115.203 27.046C114.771 27.442 114.285 27.748 113.745 27.964C113.217 28.18 112.671 28.288 112.107 28.288ZM112.071 26.164C112.467 26.164 112.845 26.068 113.205 25.876C113.577 25.672 113.877 25.384 114.105 25.012C114.345 24.64 114.465 24.202 114.465 23.698C114.465 23.23 114.357 22.816 114.141 22.456C113.937 22.096 113.655 21.814 113.295 21.61C112.935 21.406 112.521 21.304 112.053 21.304C111.609 21.304 111.207 21.412 110.847 21.628C110.487 21.832 110.199 22.12 109.983 22.492C109.779 22.852 109.677 23.26 109.677 23.716C109.677 24.22 109.791 24.658 110.019 25.03C110.247 25.39 110.541 25.672 110.901 25.876C111.273 26.068 111.663 26.164 112.071 26.164ZM121.873 28.162C121.321 28.162 120.811 28.066 120.343 27.874C119.887 27.67 119.485 27.382 119.137 27.01C118.789 26.638 118.519 26.194 118.327 25.678C118.135 25.162 118.039 24.592 118.039 23.968V20.386C118.039 20.182 118.057 20.002 118.093 19.846C118.129 19.678 118.225 19.546 118.381 19.45C118.537 19.354 118.777 19.306 119.101 19.306C119.449 19.306 119.695 19.354 119.839 19.45C119.995 19.546 120.091 19.678 120.127 19.846C120.163 20.014 120.181 20.2 120.181 20.404V23.968C120.181 24.4 120.253 24.772 120.397 25.084C120.553 25.396 120.775 25.642 121.063 25.822C121.351 25.99 121.705 26.074 122.125 26.074C122.557 26.074 122.923 25.99 123.223 25.822C123.535 25.642 123.775 25.396 123.943 25.084C124.111 24.76 124.195 24.388 124.195 23.968V20.368C124.195 20.164 124.213 19.984 124.249 19.828C124.285 19.66 124.381 19.534 124.537 19.45C124.693 19.354 124.939 19.306 125.275 19.306C125.611 19.306 125.851 19.354 125.995 19.45C126.139 19.546 126.229 19.678 126.265 19.846C126.313 20.014 126.337 20.194 126.337 20.386V27.136C126.337 27.316 126.313 27.484 126.265 27.64C126.229 27.796 126.133 27.922 125.977 28.018C125.833 28.114 125.593 28.162 125.257 28.162C125.017 28.162 124.825 28.132 124.681 28.072C124.549 28.024 124.447 27.958 124.375 27.874C124.315 27.778 124.273 27.682 124.249 27.586C124.237 27.49 124.231 27.394 124.231 27.298L124.375 26.812C124.303 26.92 124.195 27.052 124.051 27.208C123.907 27.352 123.727 27.502 123.511 27.658C123.307 27.802 123.067 27.922 122.791 28.018C122.515 28.114 122.209 28.162 121.873 28.162ZM131.373 28.288C131.061 28.288 130.731 28.252 130.383 28.18C130.035 28.12 129.699 28.03 129.375 27.91C129.051 27.778 128.769 27.628 128.529 27.46C128.301 27.28 128.157 27.082 128.097 26.866C128.049 26.746 128.031 26.632 128.043 26.524C128.055 26.404 128.091 26.284 128.151 26.164C128.211 26.032 128.301 25.9 128.421 25.768C128.529 25.636 128.637 25.564 128.745 25.552C128.865 25.528 129.015 25.564 129.195 25.66C129.351 25.72 129.519 25.798 129.699 25.894C129.891 25.99 130.083 26.086 130.275 26.182C130.479 26.278 130.683 26.356 130.887 26.416C131.103 26.476 131.313 26.506 131.517 26.506C131.961 26.506 132.315 26.434 132.579 26.29C132.843 26.134 132.975 25.918 132.975 25.642C132.975 25.486 132.933 25.348 132.849 25.228C132.765 25.108 132.651 25.012 132.507 24.94C132.375 24.856 132.213 24.784 132.021 24.724C131.841 24.652 131.643 24.592 131.427 24.544C131.223 24.484 131.007 24.418 130.779 24.346C130.479 24.262 130.179 24.16 129.879 24.04C129.579 23.92 129.309 23.764 129.069 23.572C128.841 23.38 128.655 23.14 128.511 22.852C128.367 22.564 128.295 22.204 128.295 21.772C128.295 21.232 128.421 20.776 128.673 20.404C128.937 20.02 129.315 19.726 129.807 19.522C130.299 19.318 130.893 19.216 131.589 19.216C131.829 19.216 132.057 19.234 132.273 19.27C132.501 19.306 132.717 19.36 132.921 19.432C133.137 19.492 133.341 19.57 133.533 19.666C133.737 19.762 133.929 19.87 134.109 19.99C134.409 20.158 134.565 20.356 134.577 20.584C134.589 20.8 134.505 21.034 134.325 21.286C134.193 21.454 134.061 21.574 133.929 21.646C133.797 21.706 133.659 21.706 133.515 21.646C133.323 21.55 133.113 21.448 132.885 21.34C132.669 21.22 132.441 21.118 132.201 21.034C131.973 20.95 131.733 20.908 131.481 20.908C131.241 20.908 131.025 20.944 130.833 21.016C130.641 21.088 130.497 21.19 130.401 21.322C130.305 21.454 130.257 21.61 130.257 21.79C130.257 21.958 130.305 22.096 130.401 22.204C130.497 22.312 130.623 22.402 130.779 22.474C130.935 22.546 131.121 22.612 131.337 22.672C131.553 22.72 131.781 22.768 132.021 22.816C132.357 22.888 132.699 22.978 133.047 23.086C133.395 23.194 133.713 23.344 134.001 23.536C134.301 23.728 134.541 23.986 134.721 24.31C134.901 24.622 134.991 25.03 134.991 25.534C134.991 26.41 134.667 27.088 134.019 27.568C133.383 28.048 132.501 28.288 131.373 28.288ZM141.021 28.288C140.241 28.288 139.557 28.162 138.969 27.91C138.393 27.658 137.907 27.316 137.511 26.884C137.127 26.44 136.833 25.948 136.629 25.408C136.437 24.856 136.341 24.286 136.341 23.698C136.341 22.834 136.539 22.066 136.935 21.394C137.331 20.722 137.877 20.194 138.573 19.81C139.281 19.426 140.091 19.234 141.003 19.234C141.651 19.234 142.221 19.336 142.713 19.54C143.205 19.744 143.613 20.014 143.937 20.35C144.273 20.674 144.525 21.034 144.693 21.43C144.873 21.826 144.963 22.21 144.963 22.582C144.963 23.218 144.807 23.68 144.495 23.968C144.195 24.256 143.817 24.4 143.361 24.4H138.609C138.621 24.808 138.747 25.162 138.987 25.462C139.239 25.762 139.551 25.996 139.923 26.164C140.307 26.32 140.697 26.398 141.093 26.398C141.393 26.398 141.657 26.38 141.885 26.344C142.125 26.308 142.329 26.266 142.497 26.218C142.665 26.158 142.809 26.098 142.929 26.038C143.061 25.978 143.181 25.924 143.289 25.876C143.397 25.828 143.499 25.798 143.595 25.786C143.727 25.774 143.859 25.804 143.991 25.876C144.123 25.948 144.231 26.074 144.315 26.254C144.387 26.374 144.435 26.488 144.459 26.596C144.495 26.692 144.513 26.788 144.513 26.884C144.513 27.124 144.369 27.352 144.081 27.568C143.793 27.772 143.385 27.94 142.857 28.072C142.341 28.216 141.729 28.288 141.021 28.288ZM138.609 23.122H142.299C142.503 23.122 142.659 23.092 142.767 23.032C142.875 22.96 142.929 22.816 142.929 22.6C142.929 22.324 142.845 22.078 142.677 21.862C142.509 21.634 142.281 21.46 141.993 21.34C141.705 21.208 141.369 21.142 140.985 21.142C140.541 21.142 140.139 21.232 139.779 21.412C139.419 21.58 139.131 21.814 138.915 22.114C138.711 22.414 138.609 22.75 138.609 23.122ZM66.124 50.162C65.788 50.162 65.542 50.114 65.386 50.018C65.23 49.922 65.134 49.79 65.098 49.622C65.062 49.442 65.044 49.256 65.044 49.064V38.678C65.044 38.486 65.062 38.312 65.098 38.156C65.146 37.988 65.248 37.856 65.404 37.76C65.56 37.652 65.806 37.598 66.142 37.598H69.958C70.486 37.598 71.002 37.688 71.506 37.868C72.01 38.048 72.46 38.318 72.856 38.678C73.264 39.038 73.582 39.482 73.81 40.01C74.05 40.538 74.17 41.156 74.17 41.864C74.17 42.56 74.05 43.172 73.81 43.7C73.582 44.216 73.264 44.654 72.856 45.014C72.448 45.374 71.992 45.644 71.488 45.824C70.996 46.004 70.48 46.094 69.94 46.094H67.222V49.082C67.222 49.274 67.198 49.454 67.15 49.622C67.114 49.79 67.018 49.922 66.862 50.018C66.718 50.114 66.472 50.162 66.124 50.162ZM67.222 43.898H69.958C70.33 43.898 70.666 43.826 70.966 43.682C71.278 43.526 71.53 43.298 71.722 42.998C71.914 42.686 72.01 42.296 72.01 41.828C72.01 41.408 71.92 41.048 71.74 40.748C71.572 40.436 71.332 40.196 71.02 40.028C70.72 39.86 70.36 39.776 69.94 39.776H67.222V43.898ZM76.9534 50.18C76.6294 50.18 76.3894 50.126 76.2334 50.018C76.0894 49.922 75.9994 49.79 75.9634 49.622C75.9274 49.454 75.9094 49.268 75.9094 49.064V42.386C75.9094 42.17 75.9274 41.984 75.9634 41.828C75.9994 41.66 76.0894 41.534 76.2334 41.45C76.3894 41.354 76.6354 41.306 76.9714 41.306C77.2954 41.306 77.5294 41.348 77.6734 41.432C77.8294 41.516 77.9254 41.624 77.9614 41.756C78.0094 41.876 78.0334 41.996 78.0334 42.116L77.8894 42.44C77.9494 42.344 78.0334 42.23 78.1414 42.098C78.2494 41.954 78.3934 41.816 78.5734 41.684C78.7534 41.54 78.9694 41.426 79.2214 41.342C79.4734 41.246 79.7734 41.198 80.1214 41.198C80.2654 41.198 80.4154 41.216 80.5714 41.252C80.7394 41.276 80.9014 41.318 81.0574 41.378C81.2254 41.426 81.3754 41.492 81.5074 41.576C81.6394 41.66 81.7414 41.762 81.8134 41.882C81.8854 41.99 81.9214 42.116 81.9214 42.26C81.9214 42.644 81.8254 42.968 81.6334 43.232C81.4414 43.496 81.2134 43.628 80.9494 43.628C80.7694 43.628 80.6374 43.61 80.5534 43.574C80.4694 43.538 80.3974 43.496 80.3374 43.448C80.2894 43.4 80.2114 43.358 80.1034 43.322C80.0074 43.286 79.8514 43.268 79.6354 43.268C79.4554 43.268 79.2694 43.298 79.0774 43.358C78.8974 43.418 78.7294 43.508 78.5734 43.628C78.4174 43.748 78.2914 43.904 78.1954 44.096C78.0994 44.276 78.0514 44.486 78.0514 44.726V49.1C78.0514 49.304 78.0334 49.49 77.9974 49.658C77.9614 49.814 77.8654 49.94 77.7094 50.036C77.5534 50.132 77.3014 50.18 76.9534 50.18ZM87.3305 50.288C86.7545 50.288 86.1905 50.18 85.6385 49.964C85.0985 49.736 84.6065 49.418 84.1625 49.01C83.7305 48.602 83.3825 48.122 83.1185 47.57C82.8665 47.018 82.7405 46.412 82.7405 45.752C82.7405 45.116 82.8605 44.522 83.1005 43.97C83.3405 43.418 83.6705 42.932 84.0905 42.512C84.5105 42.092 84.9905 41.768 85.5305 41.54C86.0825 41.3 86.6705 41.18 87.2945 41.18C88.1345 41.18 88.8965 41.384 89.5805 41.792C90.2645 42.188 90.8105 42.728 91.2185 43.412C91.6265 44.096 91.8305 44.87 91.8305 45.734C91.8305 46.418 91.7045 47.042 91.4525 47.606C91.2005 48.158 90.8585 48.638 90.4265 49.046C89.9945 49.442 89.5085 49.748 88.9685 49.964C88.4405 50.18 87.8945 50.288 87.3305 50.288ZM87.2945 48.164C87.6905 48.164 88.0685 48.068 88.4285 47.876C88.8005 47.672 89.1005 47.384 89.3285 47.012C89.5685 46.64 89.6885 46.202 89.6885 45.698C89.6885 45.23 89.5805 44.816 89.3645 44.456C89.1605 44.096 88.8785 43.814 88.5185 43.61C88.1585 43.406 87.7445 43.304 87.2765 43.304C86.8325 43.304 86.4305 43.412 86.0705 43.628C85.7105 43.832 85.4225 44.12 85.2065 44.492C85.0025 44.852 84.9005 45.26 84.9005 45.716C84.9005 46.22 85.0145 46.658 85.2425 47.03C85.4705 47.39 85.7645 47.672 86.1245 47.876C86.4965 48.068 86.8865 48.164 87.2945 48.164ZM91.7332 53.762C91.5532 53.762 91.3852 53.738 91.2292 53.69C91.0612 53.654 90.9292 53.564 90.8332 53.42C90.7252 53.276 90.6712 53.036 90.6712 52.7C90.6712 52.388 90.7252 52.16 90.8332 52.016C90.9292 51.872 91.0612 51.776 91.2292 51.728C91.3852 51.68 91.5652 51.656 91.7692 51.656C91.9852 51.656 92.2012 51.632 92.4172 51.584C92.6332 51.548 92.8312 51.464 93.0112 51.332C93.1912 51.212 93.3292 51.026 93.4252 50.774C93.5332 50.534 93.5872 50.21 93.5872 49.802V42.278C93.5872 42.098 93.6052 41.936 93.6412 41.792C93.6892 41.636 93.7912 41.516 93.9472 41.432C94.1032 41.336 94.3432 41.288 94.6672 41.288C94.9912 41.288 95.2252 41.336 95.3692 41.432C95.5132 41.528 95.6032 41.66 95.6392 41.828C95.6872 41.996 95.7112 42.176 95.7112 42.368V49.838C95.7112 50.498 95.5972 51.074 95.3692 51.566C95.1532 52.07 94.8592 52.484 94.4872 52.808C94.1152 53.132 93.6892 53.372 93.2092 53.528C92.7412 53.684 92.2492 53.762 91.7332 53.762ZM94.6312 39.56C94.1992 39.56 93.8992 39.476 93.7312 39.308C93.5752 39.14 93.4972 38.834 93.4972 38.39C93.4972 37.958 93.5752 37.664 93.7312 37.508C93.8992 37.352 94.2052 37.274 94.6492 37.274C95.0812 37.274 95.3752 37.358 95.5312 37.526C95.6992 37.682 95.7832 37.982 95.7832 38.426C95.7832 38.858 95.6992 39.158 95.5312 39.326C95.3752 39.482 95.0752 39.56 94.6312 39.56ZM102.178 50.288C101.398 50.288 100.714 50.162 100.126 49.91C99.5503 49.658 99.0643 49.316 98.6683 48.884C98.2843 48.44 97.9903 47.948 97.7863 47.408C97.5943 46.856 97.4983 46.286 97.4983 45.698C97.4983 44.834 97.6963 44.066 98.0923 43.394C98.4883 42.722 99.0343 42.194 99.7303 41.81C100.438 41.426 101.248 41.234 102.16 41.234C102.808 41.234 103.378 41.336 103.87 41.54C104.362 41.744 104.77 42.014 105.094 42.35C105.43 42.674 105.682 43.034 105.85 43.43C106.03 43.826 106.12 44.21 106.12 44.582C106.12 45.218 105.964 45.68 105.652 45.968C105.352 46.256 104.974 46.4 104.518 46.4H99.7663C99.7783 46.808 99.9043 47.162 100.144 47.462C100.396 47.762 100.708 47.996 101.08 48.164C101.464 48.32 101.854 48.398 102.25 48.398C102.55 48.398 102.814 48.38 103.042 48.344C103.282 48.308 103.486 48.266 103.654 48.218C103.822 48.158 103.966 48.098 104.086 48.038C104.218 47.978 104.338 47.924 104.446 47.876C104.554 47.828 104.656 47.798 104.752 47.786C104.884 47.774 105.016 47.804 105.148 47.876C105.28 47.948 105.388 48.074 105.472 48.254C105.544 48.374 105.592 48.488 105.616 48.596C105.652 48.692 105.67 48.788 105.67 48.884C105.67 49.124 105.526 49.352 105.238 49.568C104.95 49.772 104.542 49.94 104.014 50.072C103.498 50.216 102.886 50.288 102.178 50.288ZM99.7663 45.122H103.456C103.66 45.122 103.816 45.092 103.924 45.032C104.032 44.96 104.086 44.816 104.086 44.6C104.086 44.324 104.002 44.078 103.834 43.862C103.666 43.634 103.438 43.46 103.15 43.34C102.862 43.208 102.526 43.142 102.142 43.142C101.698 43.142 101.296 43.232 100.936 43.412C100.576 43.58 100.288 43.814 100.072 44.114C99.8683 44.414 99.7663 44.75 99.7663 45.122ZM112.061 50.216C111.485 50.216 110.921 50.12 110.369 49.928C109.829 49.724 109.337 49.43 108.893 49.046C108.461 48.662 108.113 48.194 107.849 47.642C107.597 47.078 107.471 46.442 107.471 45.734C107.471 45.026 107.597 44.396 107.849 43.844C108.113 43.292 108.461 42.824 108.893 42.44C109.325 42.056 109.811 41.762 110.351 41.558C110.891 41.354 111.449 41.252 112.025 41.252C112.445 41.252 112.841 41.312 113.213 41.432C113.597 41.552 113.927 41.696 114.203 41.864C114.479 42.032 114.677 42.2 114.797 42.368C114.953 42.512 115.085 42.65 115.193 42.782C115.301 42.914 115.337 43.076 115.301 43.268C115.265 43.388 115.211 43.502 115.139 43.61C115.067 43.706 114.977 43.808 114.869 43.916C114.581 44.24 114.299 44.36 114.023 44.276C113.867 44.192 113.711 44.102 113.555 44.006C113.399 43.91 113.237 43.82 113.069 43.736C112.913 43.64 112.751 43.562 112.583 43.502C112.415 43.442 112.229 43.412 112.025 43.412C111.569 43.412 111.161 43.514 110.801 43.718C110.453 43.91 110.177 44.18 109.973 44.528C109.781 44.876 109.685 45.278 109.685 45.734C109.685 46.19 109.781 46.598 109.973 46.958C110.177 47.306 110.453 47.582 110.801 47.786C111.149 47.978 111.545 48.074 111.989 48.074C112.205 48.074 112.409 48.05 112.601 48.002C112.805 47.942 112.985 47.87 113.141 47.786C113.297 47.69 113.423 47.594 113.519 47.498C113.651 47.414 113.771 47.336 113.879 47.264C113.987 47.192 114.101 47.156 114.221 47.156C114.365 47.156 114.503 47.21 114.635 47.318C114.779 47.414 114.935 47.57 115.103 47.786C115.259 47.966 115.343 48.14 115.355 48.308C115.379 48.476 115.343 48.638 115.247 48.794C115.163 48.95 115.019 49.094 114.815 49.226C114.671 49.37 114.455 49.52 114.167 49.676C113.891 49.82 113.567 49.946 113.195 50.054C112.835 50.162 112.457 50.216 112.061 50.216ZM121.279 50.18C120.691 50.18 120.187 50.12 119.767 50C119.347 49.88 119.005 49.694 118.741 49.442C118.477 49.19 118.279 48.866 118.147 48.47C118.027 48.062 117.967 47.582 117.967 47.03V39.398C117.967 39.182 117.985 38.996 118.021 38.84C118.069 38.684 118.165 38.564 118.309 38.48C118.465 38.384 118.705 38.336 119.029 38.336C119.365 38.336 119.605 38.384 119.749 38.48C119.905 38.576 120.001 38.708 120.037 38.876C120.085 39.032 120.109 39.206 120.109 39.398V46.958C120.109 47.21 120.127 47.414 120.163 47.57C120.211 47.726 120.277 47.846 120.361 47.93C120.457 48.002 120.577 48.056 120.721 48.092C120.877 48.116 121.063 48.128 121.279 48.128C121.507 48.128 121.699 48.146 121.855 48.182C122.023 48.218 122.149 48.308 122.233 48.452C122.317 48.584 122.359 48.806 122.359 49.118C122.359 49.454 122.305 49.7 122.197 49.856C122.101 50 121.969 50.09 121.801 50.126C121.645 50.162 121.471 50.18 121.279 50.18ZM117.229 41.486L119.083 41.504L121.567 41.432C121.771 41.432 121.951 41.456 122.107 41.504C122.275 41.54 122.407 41.636 122.503 41.792C122.599 41.936 122.647 42.176 122.647 42.512C122.647 42.824 122.599 43.058 122.503 43.214C122.407 43.37 122.281 43.472 122.125 43.52C121.969 43.556 121.789 43.574 121.585 43.574L119.173 43.538L117.175 43.556C116.875 43.544 116.665 43.46 116.545 43.304C116.437 43.136 116.383 42.866 116.383 42.494C116.383 42.146 116.449 41.894 116.581 41.738C116.725 41.57 116.941 41.486 117.229 41.486Z" fill="#33364D"/>
</svg>
